<svg width="16" height="16" viewBox="0 0 16 16" fill="none" xmlns="http://www.w3.org/2000/svg">
<path d="M7.99992 1.33334C4.32659 1.33334 1.33325 4.32668 1.33325 8.00001C1.33325 11.6733 4.32659 14.6667 7.99992 14.6667C11.6733 14.6667 14.6666 11.6733 14.6666 8.00001C14.6666 4.32668 11.6733 1.33334 7.99992 1.33334ZM10.8999 10.38C10.8066 10.54 10.6399 10.6267 10.4666 10.6267C10.3799 10.6267 10.2933 10.6067 10.2133 10.5533L8.14659 9.32001C7.63325 9.01334 7.25325 8.34001 7.25325 7.74668V5.01334C7.25325 4.74001 7.47992 4.51334 7.75325 4.51334C8.02659 4.51334 8.25325 4.74001 8.25325 5.01334V7.74668C8.25325 7.98668 8.45325 8.34001 8.65992 8.46001L10.7266 9.69334C10.9666 9.83334 11.0466 10.14 10.8999 10.38Z" fill="#F24C41"/>
</svg>
